<svg width="14" height="17" viewBox="0 0 14 17" fill="none" xmlns="http://www.w3.org/2000/svg">
<path fill-rule="evenodd" clip-rule="evenodd" d="M2.006 2.22986C2 2.22986 2 13.8569 2 13.8569L7 11.1349L12 13.8569V2.22386C12 2.22686 2.006 2.22986 2.006 2.22986ZM14 15.0849C14 16.7299 12.937 17.2359 11.64 16.2279L7 13.6099L2.36 16.2299C1.057 17.2419 0 16.7339 0 15.0859V2.22386C0.00104396 1.9634 0.053726 1.70574 0.154998 1.46578C0.256271 1.22581 0.404123 1.00831 0.59 0.825862C0.967719 0.454865 1.47656 0.247878 2.006 0.249862H11.994C13.102 0.249862 14 1.12986 14 2.22386V15.0859V15.0849Z" fill="#00AAFF"/>
</svg>
