<svg width="16" height="17" viewBox="0 0 16 17" fill="none" xmlns="http://www.w3.org/2000/svg">
<path d="M7 1C7 0.867392 6.94732 0.740215 6.85355 0.646447C6.75979 0.552679 6.63261 0.5 6.5 0.5H4C2.93913 0.5 1.92172 0.921427 1.17157 1.67157C0.421427 2.42172 0 3.43913 0 4.5V12.5C0 13.5609 0.421427 14.5783 1.17157 15.3284C1.92172 16.0786 2.93913 16.5 4 16.5H12C13.0609 16.5 14.0783 16.0786 14.8284 15.3284C15.5786 14.5783 16 13.5609 16 12.5V10C16 9.86739 15.9473 9.74021 15.8536 9.64645C15.7598 9.55268 15.6326 9.5 15.5 9.5H14.5C14.3674 9.5 14.2402 9.55268 14.1464 9.64645C14.0527 9.74021 14 9.86739 14 10V12.5C14 13.0304 13.7893 13.5391 13.4142 13.9142C13.0391 14.2893 12.5304 14.5 12 14.5H4C3.46957 14.5 2.96086 14.2893 2.58579 13.9142C2.21071 13.5391 2 13.0304 2 12.5V4.5C2 3.96957 2.21071 3.46086 2.58579 3.08579C2.96086 2.71071 3.46957 2.5 4 2.5H6.5C6.63261 2.5 6.75979 2.44732 6.85355 2.35355C6.94732 2.25979 7 2.13261 7 2V1Z" fill="#00AAFF"/>
<path d="M10.5 2.5H12.586L7.29298 7.793C7.11082 7.9816 7.01003 8.2342 7.01231 8.4964C7.01458 8.7586 7.11975 9.00941 7.30516 9.19482C7.49057 9.38023 7.74138 9.4854 8.00358 9.48767C8.26578 9.48995 8.51838 9.38916 8.70698 9.207L14 3.914V6C14 6.13261 14.0527 6.25979 14.1464 6.35355C14.2402 6.44732 14.3674 6.5 14.5 6.5H15.5C15.6326 6.5 15.7598 6.44732 15.8535 6.35355C15.9473 6.25979 16 6.13261 16 6V1.5C16 1.23478 15.8946 0.98043 15.7071 0.792893C15.5196 0.605357 15.2652 0.5 15 0.5H10.5C10.3674 0.5 10.2402 0.552679 10.1464 0.646447C10.0527 0.740215 9.99998 0.867392 9.99998 1V2C9.99998 2.13261 10.0527 2.25979 10.1464 2.35355C10.2402 2.44732 10.3674 2.5 10.5 2.5Z" fill="#00AAFF"/>
</svg>
