<?xml version="1.0" encoding="UTF-8"?>
<svg xmlns="http://www.w3.org/2000/svg" xmlns:xlink="http://www.w3.org/1999/xlink" width="20px" height="20px" viewBox="0 0 20 20" version="1.1">
<g id="surface1">
<path style=" stroke:none;fill-rule:nonzero;fill:rgb(0%,66.666667%,100%);fill-opacity:1;" d="M 20 10 C 20 15.523438 15.523438 20 10 20 C 4.476562 20 0 15.523438 0 10 C 0 4.476562 4.476562 0 10 0 C 15.523438 0 20 4.476562 20 10 Z M 20 10 "/>
<path style=" stroke:none;fill-rule:nonzero;fill:rgb(100%,100%,100%);fill-opacity:1;" d="M 5.859375 5.5 L 5.019531 7.804688 L 16.660156 7.804688 L 17.5 5.5 Z M 4.597656 8.957031 L 3.757812 11.261719 L 15.398438 11.261719 L 16.238281 8.957031 C 16.238281 8.957031 4.597656 8.957031 4.597656 8.957031 Z M 3.339844 12.414062 L 2.5 14.71875 L 14.140625 14.71875 L 14.980469 12.414062 C 14.980469 12.414062 3.339844 12.414062 3.339844 12.414062 Z M 3.339844 12.414062 "/>
</g>
</svg>
