<svg width="200" height="50" viewBox="0 0 200 50" fill="none" xmlns="http://www.w3.org/2000/svg">
    <path d="M56.9057 7L55.1777 11.7398H79.1146L80.8425 7H56.9057ZM54.3148 14.1076L52.5868 18.8464H76.5237L78.2516 14.1076C78.2516 14.1076 54.3148 14.1076 54.3148 14.1076ZM51.7289 21.2152L50.001 25.953H73.9378L75.6638 21.2142C75.6648 21.2152 51.7289 21.2152 51.7289 21.2152Z" fill="#009FDF"/>
    <path d="M100.323 27.4405V27.5389C101.398 27.9337 102.426 28.6249 102.963 29.0689C104.625 30.4513 105.359 32.2766 105.359 34.6455C105.359 38.5464 103.306 41.3583 99.9312 42.2474C98.9034 42.5438 97.8285 42.6422 95.8243 42.6422H85.6074V14.1133H94.6529C96.5115 14.1133 97.7813 14.2117 98.9055 14.5071C102.181 15.3962 104.333 17.6666 104.333 21.2691C104.333 23.195 103.649 24.8244 102.525 25.9094C102.036 26.4027 101.352 26.9954 100.325 27.4394L100.323 27.4405ZM91.2785 30.4513V37.9537H95.1904C96.3628 37.9537 97.4397 37.8553 98.2213 37.1149C99.0039 36.3745 99.3455 35.4362 99.3455 34.2025C99.3455 33.2662 99.1004 32.3771 98.6121 31.7352C97.7813 30.6984 96.7536 30.4513 94.9945 30.4513H91.2774H91.2785ZM91.2282 25.5146H94.4068C95.3843 25.5146 95.8735 25.5146 96.3618 25.3669C97.6828 24.9711 98.5137 23.7887 98.5137 22.1592C98.5137 20.2344 97.6336 19.3945 96.3618 19.0007C95.8233 18.852 95.2868 18.8038 94.2109 18.8038H91.2282V25.5156V25.5146ZM113.866 42.6432V18.9013H105.702V14.1143H128.389L126.775 18.9013H119.538V42.6432H113.866ZM130.149 42.6432V14.1143H148.533L146.92 18.9013H135.773V25.2203H140.321C143.987 25.2203 145.894 26.1093 147.215 27.2435C148.243 28.1326 150.002 30.1057 150.002 34.0066C150.002 37.8563 148.194 39.978 146.677 41.065C144.917 42.2976 143.059 42.6442 139.293 42.6442H130.15H130.149V42.6432ZM135.772 37.8543H140.025C141.639 37.8543 142.616 37.4594 143.3 36.5704C143.642 36.1273 144.131 35.3357 144.131 33.8559C144.131 32.3761 143.642 31.3383 142.664 30.5979C142.079 30.1549 141.295 29.9088 139.975 29.9088H135.77V37.8543H135.772Z" fill="#0A2973"/>
</svg>
